PathFileType	4	(X/Y/Z)	./resultDataOpenSim/trcMotMarkerGrf/sub10/qtm-04-03.trc
DataRate	CameraRate	NumFrames	NumMarkers	Units	OrigDataRate	OrigDataStartFrame	OrigNumFrames
250.000000	250.000000	7	24	m	250.000000	191	508
Frame#	Time	L.Toe.Tip			R.Toe.Tip			L.Ankle.Lat			R.Ankle.Lat			L.Ankle.Med			R.Ankle.Med			L.Heel			R.Heel			L.Knee.Lat			R.Knee.Lat			L.Knee.Med			R.Knee.Med			L.Thigh.Upper			R.Thigh.Upper			L.ASIS			R.ASIS			V.Sacral			L.Acromium			R.Acromium			C7			L.Elbow			R.Elbow			L.Wrist.Lat			R.Wrist.Lat
		X1	Y1	Z1	X2	Y2	Z2	X3	Y3	Z3	X4	Y4	Z4	X5	Y5	Z5	X6	Y6	Z6	X7	Y7	Z7	X8	Y8	Z8	X9	Y9	Z9	X10	Y10	Z10	X11	Y11	Z11	X12	Y12	Z12	X13	Y13	Z13	X14	Y14	Z14	X15	Y15	Z15	X16	Y16	Z16	X17	Y17	Z17	X18	Y18	Z18	X19	Y19	Z19	X20	Y20	Z20	X21	Y21	Z21	X22	Y22	Z22	X23	Y23	Z23	X24	Y24	Z24

191	0.76	0.03572258	-0.030956635	-0.10246968	-0.72867956	0.038714535	-0.035659269	-0.096978025	0.009542381	-0.15396966	-0.85932418	0.098389901	-0.010478687	-0.097750851	0.034722913	-0.073144959	-0.81840753	0.114024	-0.091378203	-0.16102903	-0.012928296	-0.11324689	-0.90777313	0.095100579	-0.059881328	-0.14650354	0.39474545	-0.18983038	-0.58880235	0.39937938	0.041066532	-0.13007135	0.37854146	-0.069188666	-0.54960149	0.39167762	-0.083028336	-0.26990877	0.7572292	-0.2473504	-0.4487946	0.77916089	0.10399608	-0.24516242	0.86175454	-0.15751144	-0.33360798	0.85608969	0.074021583	-0.47630964	0.87288545	-0.12161778	-0.36621796	1.3304031	-0.23138543	-0.39849461	1.3290628	0.089716681	-0.46371577	1.3544367	-0.08483927	-0.54370088	1.0480637	-0.30409909	-0.37299944	0.97345901	0.15869113	-0.51121894	0.81232302	-0.3514072	-0.13180386	0.89998916	0.15028013
192	0.764	0.036114233	-0.031596488	-0.10231123	-0.72815469	0.038783812	-0.035432048	-0.097620107	0.0073361634	-0.15292325	-0.85645095	0.10139417	-0.0094963484	-0.098209824	0.032565432	-0.071941953	-0.81574762	0.11641965	-0.090272567	-0.16161365	-0.015555317	-0.11228979	-0.90544694	0.099443223	-0.059034482	-0.14098656	0.3930491	-0.18914937	-0.58244599	0.39860477	0.041423337	-0.12453564	0.37693381	-0.068429955	-0.54332317	0.39061359	-0.082619867	-0.26282669	0.75603366	-0.24747108	-0.44094674	0.77750841	0.10398347	-0.23778327	0.86096755	-0.15797721	-0.32537837	0.85439211	0.073613962	-0.46878761	0.87217532	-0.12199915	-0.3597868	1.3291476	-0.23192757	-0.39207444	1.3279505	0.089238929	-0.45730719	1.3529713	-0.085380036	-0.53676895	1.0465441	-0.30383731	-0.3676055	0.97204605	0.15749781	-0.50552837	0.81092532	-0.35194962	-0.12635397	0.89847342	0.14949928
193	0.768	0.036370395	-0.032084582	-0.10211526	-0.72762354	0.038820261	-0.035225409	-0.098146178	0.0052925773	-0.15210576	-0.85312834	0.10476722	-0.0084118697	-0.09879379	0.030508198	-0.070993701	-0.81278866	0.11889969	-0.08912146	-0.16207741	-0.018165762	-0.11177901	-0.90280781	0.10402701	-0.058306849	-0.13546345	0.39153851	-0.18835001	-0.57577748	0.39779958	0.041804288	-0.11943312	0.37539556	-0.067486273	-0.53669356	0.3895157	-0.082173216	-0.25569519	0.75488826	-0.24761477	-0.43295423	0.77585019	0.10400892	-0.23043347	0.86021595	-0.15847311	-0.31719001	0.85274172	0.073192531	-0.46114065	0.87138797	-0.12281682	-0.35333741	1.3279255	-0.2324835	-0.38557748	1.3268845	0.088758659	-0.45084782	1.3515761	-0.085947255	-0.52979616	1.045034	-0.30350528	-0.36230202	0.97066076	0.15622154	-0.49968096	0.80951902	-0.35252528	-0.12099802	0.89685256	0.14878942
194	0.772	0.036556199	-0.032444501	-0.10195924	-0.7270683	0.038834536	-0.035038691	-0.098505064	0.0034761077	-0.15148711	-0.84941321	0.10855024	-0.0072600746	-0.099361933	0.028519049	-0.070247464	-0.80950146	0.12143805	-0.08794339	-0.16244741	-0.020775851	-0.11156215	-0.89985139	0.10884886	-0.057817198	-0.12985435	0.39023337	-0.18744711	-0.56878727	0.39696018	0.04221587	-0.11472517	0.37395612	-0.066439242	-0.5297021	0.38836997	-0.081658806	-0.24850621	0.75383382	-0.24780025	-0.42483844	0.77419058	0.10407497	-0.22311644	0.85950513	-0.15896992	-0.30909735	0.85115562	0.072787869	-0.45334753	0.87048587	-0.12415367	-0.34687592	1.3267461	-0.23304413	-0.37901147	1.3258743	0.088278445	-0.44431583	1.3502639	-0.086539094	-0.522725	1.0435299	-0.30318082	-0.35702766	0.96932131	0.15485692	-0.49367469	0.80810695	-0.35312539	-0.11573439	0.8951319	0.14815143
195	0.776	0.03671629	-0.032707348	-0.10189055	-0.72645308	0.038832849	-0.034871784	-0.098690911	0.0018748577	-0.15103508	-0.84545087	0.11257771	-0.0061505849	-0.099824142	0.026639126	-0.069675399	-0.80585642	0.12401856	-0.086761484	-0.1627642	-0.023197893	-0.11151056	-0.89653566	0.1138985	-0.05761581	-0.12410666	0.38910859	-0.18645556	-0.56146807	0.39607606	0.04266121	-0.11034421	0.37260597	-0.065355507	-0.52232852	0.38715668	-0.081042111	-0.24126291	0.75291102	-0.24804065	-0.41664268	0.77252655	0.10418089	-0.21582995	0.85883556	-0.15944653	-0.30110642	0.849634	0.072405068	-0.44542952	0.86946596	-0.12591032	-0.34039339	1.3256199	-0.23360949	-0.372389	1.3249334	0.087805755	-0.43772468	1.3490413	-0.087136277	-0.51552092	1.0420297	-0.30291477	-0.351698	0.96804532	0.15338842	-0.48751496	0.80669848	-0.35374109	-0.1105676	0.89331854	0.1475805
196	0.78	0.036843002	-0.032905249	-0.10187394	-0.72575457	0.038810683	-0.034734375	-0.098748794	0.00041948131	-0.15073309	-0.8414598	0.11665278	-0.0052019383	-0.1001929	0.024926489	-0.069263195	-0.80181088	0.12665531	-0.08558764	-0.16305604	-0.025328632	-0.11157909	-0.89277389	0.11915451	-0.057555543	-0.11818793	0.38810619	-0.18539597	-0.55379588	0.39514406	0.043147534	-0.10620043	0.37130386	-0.064256364	-0.51454738	0.38585165	-0.0802907	-0.23396808	0.75215246	-0.24833742	-0.40841228	0.77085526	0.10432021	-0.20857514	0.85820282	-0.15989635	-0.29318497	0.84815886	0.072029189	-0.43751095	0.86841187	-0.12760669	-0.33385819	1.3245535	-0.23418194	-0.36572877	1.3240685	0.087355181	-0.43111848	1.3479121	-0.087698929	-0.5081863	1.0405406	-0.30272133	-0.346269	0.96683672	0.15177084	-0.48120399	0.80530571	-0.3543662	-0.10550892	0.89141846	0.14707002
197	0.784	0.036906214	-0.033059472	-0.10184862	-0.72498231	0.038757732	-0.034641377	-0.098746121	-0.0009642086	-0.15056786	-0.83747824	0.12072002	-0.0044454818	-0.10053368	0.023404226	-0.068980301	-0.79729542	0.1293585	-0.084410973	-0.16333562	-0.027223333	-0.11176661	-0.88846011	0.1245993	-0.057432604	-0.11209447	0.38716537	-0.1842937	-0.54572357	0.39417964	0.043692998	-0.10222346	0.37000149	-0.06313892	-0.50634319	0.38442417	-0.079379149	-0.22662282	0.75157144	-0.2486795	-0.40017253	0.76918351	0.10448425	-0.20135815	0.85760484	-0.16032492	-0.28530623	0.84671538	0.071641314	-0.42984186	0.86751785	-0.12840425	-0.32725328	1.3235509	-0.23475776	-0.3590537	1.3232719	0.086939201	-0.42451441	1.3468802	-0.088206069	-0.50073861	1.0390727	-0.30260899	-0.34077532	0.96569167	0.15000385	-0.47473526	0.80393665	-0.35499474	-0.10056531	0.88943415	0.1466145
